<svg width="25" height="25" viewBox="0 0 25 25" fill="none" xmlns="http://www.w3.org/2000/svg">
<path d="M23.7275 22.1H22.5275V14.5C22.5274 14.2791 22.3481 14.1001 22.1272 14.1003C21.9969 14.1004 21.8747 14.164 21.7999 14.2708L16.1999 22.2708C16.0733 22.4518 16.1175 22.7012 16.2985 22.8278C16.3657 22.8747 16.4456 22.8999 16.5275 22.9H21.7275V24.1C21.7275 24.3209 21.9066 24.5 22.1275 24.5C22.3484 24.5 22.5275 24.3209 22.5275 24.1V22.9H23.7275C23.9484 22.9 24.1275 22.7209 24.1275 22.5C24.1275 22.2791 23.9484 22.1 23.7275 22.1ZM21.7275 22.1H17.2955L21.7275 15.7688V22.1Z" fill="black"/>
<path d="M16.5275 23.7H11.7919L16.1947 18.5156C16.2047 18.5037 16.2141 18.4913 16.2227 18.4784C17.051 17.2525 16.7751 15.5927 15.5947 14.7008C14.1595 13.6695 12.16 13.9971 11.1288 15.4323C10.7377 15.9766 10.5274 16.6298 10.5275 17.3C10.5275 17.5209 10.7066 17.7 10.9275 17.7C11.1484 17.7 11.3275 17.5209 11.3275 17.3C11.3274 15.9745 12.4018 14.8999 13.7273 14.8997C14.2297 14.8997 14.7194 15.0573 15.1275 15.3504C15.9544 15.9839 16.1469 17.1507 15.5675 18.0164L10.6227 23.8412C10.4798 24.0096 10.5005 24.262 10.6689 24.405C10.7412 24.4663 10.8328 24.4999 10.9275 24.5H16.5275C16.7484 24.5 16.9275 24.3209 16.9275 24.1C16.9275 23.8791 16.7484 23.7 16.5275 23.7Z" fill="black"/>
<path d="M10.9363 21.7076C10.9447 21.4869 10.7724 21.3011 10.5517 21.2928H10.5515C5.333 21.0991 1.14455 16.9181 0.941503 11.7H2.5275C2.7484 11.7 2.9275 11.5209 2.9275 11.3C2.9275 11.0791 2.7484 10.9 2.5275 10.9H0.941503C1.14165 5.69105 5.3185 1.51435 10.5275 1.3144V2.5C10.5275 2.7209 10.7066 2.9 10.9275 2.9C11.1484 2.9 11.3275 2.7209 11.3275 2.5V1.3144C16.4652 1.5131 20.6118 5.5814 20.9083 10.7144L19.3483 9.1544C19.1894 9.0009 18.9362 9.0053 18.7827 9.1642C18.633 9.3192 18.633 9.56495 18.7827 9.72L21.0155 11.9528C21.0576 12.0037 21.1118 12.0431 21.1731 12.0676C21.1888 12.0723 21.2047 12.0762 21.2207 12.0792C21.2482 12.0891 21.2766 12.096 21.3055 12.0996C21.3095 12.0996 21.3131 12.0996 21.3171 12.0996C21.3211 12.0996 21.3247 12.0996 21.3283 12.0996C21.3588 12.0973 21.3889 12.0914 21.4179 12.082C21.4344 12.08 21.4507 12.077 21.4667 12.0728C21.5209 12.0535 21.5702 12.0227 21.6111 11.9824L23.8743 9.72C24.0278 9.5611 24.0234 9.3079 23.8645 9.1544C23.7095 9.0047 23.4638 9.0047 23.3087 9.1544L21.7099 10.752C21.4242 5.0185 16.6965 0.51405 10.9559 0.5056C10.9459 0.5052 10.9375 0.5 10.9275 0.5C10.9175 0.5 10.9091 0.5052 10.8991 0.5056C4.9566 0.51375 0.141252 5.3291 0.133102 11.2716C0.133102 11.2816 0.127502 11.29 0.127502 11.3C0.127502 11.31 0.132702 11.3184 0.133102 11.3284C0.143052 17.1243 4.73005 21.8769 10.5219 22.0924H10.5367C10.7517 22.0924 10.9282 21.9224 10.9363 21.7076Z" fill="black"/>
<path d="M16.3015 5.926C16.1453 5.76985 15.8921 5.76985 15.7359 5.926L11.4375 10.224C11.1128 10.0792 10.7418 10.0792 10.4171 10.224L8.38192 8.1888C8.22302 8.03535 7.96977 8.03975 7.81632 8.19865C7.66662 8.35365 7.66662 8.5994 7.81632 8.7544L9.84752 10.7856C9.56232 11.3826 9.81512 12.0978 10.4122 12.3829C10.8704 12.6018 11.4169 12.508 11.7759 12.1488C12.1369 11.7909 12.2298 11.2429 12.0071 10.786L16.3015 6.4916C16.4577 6.3354 16.4577 6.0822 16.3015 5.926ZM11.2104 11.5827L11.2103 11.5828C11.0521 11.734 10.8029 11.734 10.6447 11.5828C10.4885 11.4266 10.4885 11.1733 10.6446 11.0171C10.8008 10.8608 11.0541 10.8608 11.2103 11.017C11.3666 11.1732 11.3666 11.4265 11.2104 11.5827Z" fill="black"/>
</svg>
