<svg width="25" height="25" viewBox="0 0 25 25" fill="none" xmlns="http://www.w3.org/2000/svg">
<g clip-path="url(#clip0_144_1121)">
<path d="M23.994 22.1672H22.794V14.5672C22.7938 14.3463 22.6146 14.1673 22.3937 14.1675C22.2633 14.1676 22.1412 14.2312 22.0664 14.338L16.4664 22.338C16.3398 22.519 16.3839 22.7684 16.565 22.895C16.6321 22.9419 16.712 22.9671 16.794 22.9672H21.994V24.1672C21.994 24.3881 22.1731 24.5672 22.394 24.5672C22.6149 24.5672 22.794 24.3881 22.794 24.1672V22.9672H23.994C24.2149 22.9672 24.394 22.7881 24.394 22.5672C24.394 22.3463 24.2149 22.1672 23.994 22.1672ZM21.994 22.1672H17.562L21.994 15.836V22.1672Z" fill="white"/>
<path d="M16.7941 23.7672H12.0585L16.4613 18.5828C16.4713 18.5709 16.4806 18.5585 16.4893 18.5456C17.3176 17.3197 17.0417 15.6599 15.8613 14.768C14.426 13.7367 12.4265 14.0643 11.3953 15.4995C11.0043 16.0438 10.794 16.697 10.7941 17.3672C10.7941 17.5881 10.9732 17.7672 11.1941 17.7672C11.415 17.7672 11.5941 17.5881 11.5941 17.3672C11.5939 16.0417 12.6684 14.9671 13.9938 14.9669C14.4962 14.9669 14.986 15.1245 15.3941 15.4176C16.2209 16.0511 16.4135 17.2179 15.8341 18.0836L10.8893 23.9084C10.7463 24.0768 10.767 24.3292 10.9355 24.4722C11.0077 24.5335 11.0993 24.5671 11.1941 24.5672H16.7941C17.015 24.5672 17.1941 24.3881 17.1941 24.1672C17.1941 23.9463 17.015 23.7672 16.7941 23.7672Z" fill="white"/>
<path d="M11.2028 21.775C11.2112 21.5542 11.0389 21.3685 10.8182 21.3602H10.818C5.59954 21.1665 1.41109 16.9855 1.20804 11.7674H2.79404C3.01494 11.7674 3.19404 11.5883 3.19404 11.3674C3.19404 11.1465 3.01494 10.9674 2.79404 10.9674H1.20804C1.40819 5.75843 5.58504 1.58173 10.794 1.38178V2.56738C10.794 2.78828 10.9731 2.96738 11.194 2.96738C11.4149 2.96738 11.594 2.78828 11.594 2.56738V1.38178C16.7317 1.58048 20.8783 5.64878 21.1748 10.7818L19.6148 9.22178C19.4559 9.06828 19.2027 9.07268 19.0492 9.23158C18.8995 9.38658 18.8995 9.63233 19.0492 9.78738L21.282 12.0202C21.3241 12.0711 21.3783 12.1105 21.4396 12.135C21.4553 12.1397 21.4712 12.1436 21.4872 12.1466C21.5147 12.1565 21.5431 12.1633 21.572 12.167C21.576 12.167 21.5796 12.167 21.5836 12.167C21.5876 12.167 21.5912 12.167 21.5948 12.167C21.6253 12.1647 21.6554 12.1588 21.6844 12.1494C21.7009 12.1474 21.7172 12.1443 21.7332 12.1402C21.7874 12.1209 21.8367 12.0901 21.8776 12.0498L24.1408 9.78738C24.2943 9.62848 24.2899 9.37528 24.131 9.22178C23.976 9.07208 23.7303 9.07208 23.5752 9.22178L21.9764 10.8194C21.6907 5.08588 16.963 0.581433 11.2224 0.572983C11.2124 0.572583 11.204 0.567383 11.194 0.567383C11.184 0.567383 11.1756 0.572583 11.1656 0.572983C5.22314 0.581133 0.407793 5.39648 0.399643 11.339C0.399643 11.349 0.394043 11.3574 0.394043 11.3674C0.394043 11.3774 0.399243 11.3858 0.399643 11.3958C0.409593 17.1916 4.99659 21.9443 10.7884 22.1598H10.8032C11.0182 22.1597 11.1947 21.9898 11.2028 21.775Z" fill="white"/>
<path d="M16.5681 5.99358C16.4119 5.83743 16.1587 5.83743 16.0025 5.99358L11.7041 10.2916C11.3793 10.1468 11.0084 10.1468 10.6837 10.2916L8.64846 8.25638C8.48956 8.10293 8.23631 8.10733 8.08286 8.26623C7.93316 8.42123 7.93316 8.66698 8.08286 8.82198L10.1141 10.8532C9.82886 11.4502 10.0817 12.1654 10.6787 12.4505C11.137 12.6694 11.6835 12.5756 12.0425 12.2164C12.4034 11.8585 12.4964 11.3105 12.2737 10.8536L16.5681 6.55918C16.7242 6.40298 16.7242 6.14978 16.5681 5.99358ZM11.477 11.6503L11.4769 11.6504C11.3187 11.8016 11.0695 11.8016 10.9113 11.6504C10.755 11.4942 10.755 11.2409 10.9112 11.0847C11.0674 10.9284 11.3206 10.9284 11.4769 11.0846C11.6331 11.2408 11.6331 11.4941 11.477 11.6503Z" fill="white"/>
</g>
<defs>
<clipPath id="clip0_144_1121">
<rect width="24" height="24" fill="white" transform="translate(0.394043 0.567383)"/>
</clipPath>
</defs>
</svg>
