<svg width="25" height="25" viewBox="0 0 25 25" fill="none" xmlns="http://www.w3.org/2000/svg">
<g clip-path="url(#clip0_144_1135)">
<path d="M22.3906 3.91748H2.60938C1.44392 3.91748 0.5 4.86726 0.5 6.02686V18.6831C0.5 19.8496 1.45086 20.7925 2.60938 20.7925H22.3906C23.5463 20.7925 24.5 19.8536 24.5 18.6831V6.02686C24.5 4.86932 23.5598 3.91748 22.3906 3.91748ZM22.0952 5.32373C21.6642 5.7524 14.2476 13.13 13.9916 13.3847C13.5931 13.7831 13.0634 14.0025 12.5 14.0025C11.9366 14.0025 11.4069 13.7831 11.0071 13.3834C10.8349 13.212 3.50014 5.91595 2.90478 5.32373H22.0952ZM1.90625 18.3969V6.31396L7.98303 12.3587L1.90625 18.3969ZM2.90567 19.3862L8.98006 13.3505L10.0141 14.379C10.6781 15.0431 11.561 15.4087 12.5 15.4087C13.439 15.4087 14.3219 15.0431 14.9846 14.3804L16.0199 13.3505L22.0943 19.3862H2.90567ZM23.0938 18.3969L17.017 12.3587L23.0938 6.31396V18.3969Z" fill="white"/>
</g>
<defs>
<clipPath id="clip0_144_1135">
<rect width="24" height="24" fill="white" transform="translate(0.5 0.35498)"/>
</clipPath>
</defs>
</svg>
