<svg width="25" height="25" viewBox="0 0 25 25" fill="none" xmlns="http://www.w3.org/2000/svg">
<path d="M5.39041 16.3086C7.75759 19.1382 10.6072 21.3662 13.8595 22.9426C15.0978 23.5295 16.7539 24.2257 18.5989 24.345C18.7132 24.35 18.8227 24.355 18.937 24.355C20.1753 24.355 21.1699 23.9273 21.9806 23.0471C21.9855 23.0421 21.9955 23.0321 22.0004 23.0222C22.2889 22.6741 22.6171 22.3608 22.9602 22.0276C23.194 21.8038 23.4327 21.5701 23.6614 21.3314C24.7207 20.2273 24.7207 18.8249 23.6515 17.7557L20.6627 14.7669C20.1554 14.2398 19.5487 13.9613 18.9122 13.9613C18.2756 13.9613 17.6639 14.2398 17.1418 14.7619L15.3614 16.5423C15.1973 16.4478 15.0282 16.3633 14.8691 16.2837C14.6701 16.1842 14.4861 16.0897 14.322 15.9853C12.7008 14.9559 11.2288 13.6132 9.82141 11.8875C9.11026 10.9874 8.63285 10.2315 8.29966 9.46066C8.76712 9.03795 9.20475 8.59535 9.62746 8.16269C9.77666 8.00852 9.93082 7.85436 10.085 7.70019C10.6221 7.1631 10.9105 6.54147 10.9105 5.90989C10.9105 5.27831 10.627 4.65668 10.085 4.11959L8.60301 2.63762C8.42895 2.46356 8.26484 2.29447 8.09576 2.12042C7.76754 1.78225 7.4244 1.43414 7.08623 1.12083C6.574 0.618553 5.97226 0.35498 5.33571 0.35498C4.70413 0.35498 4.09742 0.618553 3.5653 1.12581L1.70537 2.98573C1.02904 3.66207 0.646112 4.48262 0.566543 5.43248C0.472054 6.62104 0.690869 7.8842 1.2578 9.41093C2.12808 11.7731 3.44097 13.9663 5.39041 16.3086ZM1.77997 5.53691C1.83965 4.87549 2.09327 4.32348 2.57069 3.84607L4.42067 1.99609C4.7091 1.7176 5.02738 1.57338 5.33571 1.57338C5.63907 1.57338 5.9474 1.7176 6.23086 2.00604C6.56406 2.31437 6.87736 2.63762 7.21553 2.98076C7.38461 3.15481 7.55867 3.32887 7.73273 3.5079L9.2147 4.98987C9.52303 5.2982 9.68217 5.61151 9.68217 5.91984C9.68217 6.22817 9.52303 6.54147 9.2147 6.8498C9.06053 7.00397 8.90637 7.1631 8.7522 7.31727C8.28971 7.78474 7.85705 8.22734 7.37964 8.65005C7.36969 8.66 7.36472 8.66497 7.35477 8.67491C6.94201 9.08768 7.00666 9.48055 7.10612 9.77893C7.11109 9.79385 7.11607 9.8038 7.12104 9.81872C7.50397 10.7387 8.03608 11.614 8.86658 12.6583C10.3585 14.4984 11.93 15.9256 13.6606 17.0247C13.8745 17.1639 14.1032 17.2733 14.3171 17.3827C14.516 17.4822 14.7 17.5767 14.8641 17.6811C14.884 17.6911 14.8989 17.701 14.9188 17.711C15.0829 17.7955 15.2421 17.8353 15.4012 17.8353C15.799 17.8353 16.0576 17.5817 16.1422 17.4971L18.0021 15.6372C18.2905 15.3488 18.6038 15.1946 18.9122 15.1946C19.2901 15.1946 19.5985 15.4283 19.7924 15.6372L22.7912 18.631C23.3879 19.2278 23.383 19.8743 22.7762 20.5058C22.5674 20.7296 22.3486 20.9435 22.1148 21.1672C21.7667 21.5054 21.4037 21.8535 21.0755 22.2464C20.5036 22.8631 19.8222 23.1515 18.942 23.1515C18.8575 23.1515 18.768 23.1465 18.6834 23.1416C17.0522 23.0371 15.5355 22.4006 14.3966 21.8585C11.3034 20.3616 8.58809 18.2381 6.3353 15.5427C4.48034 13.3098 3.2321 11.2311 2.40658 9.00314C1.89435 7.63554 1.7004 6.5365 1.77997 5.53691Z" fill="white"/>
</svg>
