<svg width="25" height="25" viewBox="0 0 25 25" fill="none" xmlns="http://www.w3.org/2000/svg">
<g clip-path="url(#clip0_144_540)">
<path d="M16.4236 13.4961L14.4136 15.513C13.5985 16.331 12.1643 16.3486 11.3316 15.513L9.32143 13.4961L2.10193 20.7391C2.37066 20.8633 2.66696 20.9375 2.98196 20.9375H22.7632C23.0782 20.9375 23.3744 20.8634 23.6431 20.7391L16.4236 13.4961Z" fill="#333333"/>
<path d="M22.7632 4.0625H2.98199C2.66699 4.0625 2.37069 4.13666 2.10205 4.26092L9.8166 12.0011C9.81711 12.0016 9.81772 12.0017 9.81824 12.0022C9.81875 12.0027 9.81885 12.0034 9.81885 12.0034L12.3273 14.5201C12.5937 14.7866 13.1516 14.7866 13.4181 14.5201L15.926 12.0038C15.926 12.0038 15.9266 12.0027 15.9271 12.0022C15.9271 12.0022 15.9282 12.0016 15.9287 12.0011L23.6431 4.26088C23.3744 4.13656 23.0782 4.0625 22.7632 4.0625Z" fill="#333333"/>
<path d="M1.0969 5.24431C0.957871 5.52546 0.872559 5.83756 0.872559 6.17187V18.8281C0.872559 19.1624 0.957777 19.4745 1.09686 19.7557L8.32887 12.5002L1.0969 5.24431Z" fill="#333333"/>
<path d="M24.6482 5.24422L17.4163 12.5002L24.6482 19.7558C24.7872 19.4746 24.8725 19.1625 24.8725 18.8281V6.17187C24.8725 5.83747 24.7872 5.52537 24.6482 5.24422Z" fill="#333333"/>
</g>
<defs>
<clipPath id="clip0_144_540">
<rect width="24" height="24" fill="white" transform="translate(0.872559 0.5)"/>
</clipPath>
</defs>
</svg>
