<svg width="25" height="25" viewBox="0 0 25 25" fill="none" xmlns="http://www.w3.org/2000/svg">
<path d="M18.2933 0.5H7.45179C3.824 0.5 0.872559 3.45144 0.872559 7.07928V17.9208C0.872559 21.5486 3.824 24.5 7.45179 24.5H18.2933C21.9212 24.5 24.8726 21.5486 24.8726 17.9208V7.07928C24.8726 3.45144 21.9212 0.5 18.2933 0.5ZM12.8726 19.0828C9.24279 19.0828 6.28986 16.1298 6.28986 12.5C6.28986 8.87023 9.24284 5.91734 12.8726 5.91734C16.5023 5.91734 19.4553 8.87028 19.4553 12.5C19.4553 16.1297 16.5023 19.0828 12.8726 19.0828ZM19.849 7.52356C18.7462 7.52356 17.849 6.62637 17.849 5.52359C17.849 4.42081 18.7462 3.52358 19.849 3.52358C20.9518 3.52358 21.849 4.42077 21.849 5.52355C21.849 6.62633 20.9518 7.52356 19.849 7.52356Z" fill="#333333"/>
</svg>
