<svg width="64" height="65" viewBox="0 0 64 65" fill="none" xmlns="http://www.w3.org/2000/svg">
<path d="M17.0719 17.2559H17.3969C17.5958 17.2559 17.7866 17.1768 17.9272 17.0362C18.0679 16.8955 18.1469 16.7048 18.1469 16.5059C18.1469 16.3069 18.0679 16.1162 17.9272 15.9755C17.7866 15.8349 17.5958 15.7559 17.3969 15.7559H17.0719C16.873 15.7559 16.6822 15.8349 16.5416 15.9755C16.4009 16.1162 16.3219 16.3069 16.3219 16.5059C16.3219 16.7048 16.4009 16.8955 16.5416 17.0362C16.6822 17.1768 16.873 17.2559 17.0719 17.2559Z" fill="#F41E1E"/>
<path d="M20.6407 17.2559H23.0969C23.2958 17.2559 23.4865 17.1768 23.6272 17.0362C23.7679 16.8955 23.8469 16.7048 23.8469 16.5059C23.8469 16.3069 23.7679 16.1162 23.6272 15.9755C23.4865 15.8349 23.2958 15.7559 23.0969 15.7559H20.6407C20.4418 15.7559 20.2511 15.8349 20.1104 15.9755C19.9698 16.1162 19.8907 16.3069 19.8907 16.5059C19.8907 16.7048 19.9698 16.8955 20.1104 17.0362C20.2511 17.1768 20.4418 17.2559 20.6407 17.2559Z" fill="#F41E1E"/>
<path d="M26.3933 17.2559H43.9988C44.1977 17.2559 44.3885 17.1768 44.5291 17.0362C44.6698 16.8955 44.7488 16.7048 44.7488 16.5059C44.7488 16.3069 44.6698 16.1162 44.5291 15.9755C44.3885 15.8349 44.1977 15.7559 43.9988 15.7559H26.3933C26.1944 15.7559 26.0036 15.8349 25.863 15.9755C25.7223 16.1162 25.6433 16.3069 25.6433 16.5059C25.6433 16.7048 25.7223 16.8955 25.863 17.0362C26.0036 17.1768 26.1944 17.2559 26.3933 17.2559Z" fill="#F41E1E"/>
<path d="M17.0719 12.823H17.3969C17.5958 12.823 17.7866 12.744 17.9272 12.6033C18.0679 12.4627 18.1469 12.2719 18.1469 12.073C18.1469 11.8741 18.0679 11.6833 17.9272 11.5427C17.7866 11.402 17.5958 11.323 17.3969 11.323H17.0719C16.873 11.323 16.6822 11.402 16.5416 11.5427C16.4009 11.6833 16.3219 11.8741 16.3219 12.073C16.3219 12.2719 16.4009 12.4627 16.5416 12.6033C16.6822 12.744 16.873 12.823 17.0719 12.823Z" fill="#F41E1E"/>
<path d="M20.6407 12.823H23.0969C23.2958 12.823 23.4865 12.744 23.6272 12.6033C23.7679 12.4627 23.8469 12.2719 23.8469 12.073C23.8469 11.8741 23.7679 11.6833 23.6272 11.5427C23.4865 11.402 23.2958 11.323 23.0969 11.323H20.6407C20.4418 11.323 20.2511 11.402 20.1104 11.5427C19.9698 11.6833 19.8907 11.8741 19.8907 12.073C19.8907 12.2719 19.9698 12.4627 20.1104 12.6033C20.2511 12.744 20.4418 12.823 20.6407 12.823Z" fill="#F41E1E"/>
<path d="M26.3933 12.823H43.9988C44.1977 12.823 44.3885 12.744 44.5291 12.6033C44.6698 12.4627 44.7488 12.2719 44.7488 12.073C44.7488 11.8741 44.6698 11.6833 44.5291 11.5427C44.3885 11.402 44.1977 11.323 43.9988 11.323H26.3933C26.1944 11.323 26.0036 11.402 25.863 11.5427C25.7223 11.6833 25.6433 11.8741 25.6433 12.073C25.6433 12.2719 25.7223 12.4627 25.863 12.6033C26.0036 12.744 26.1944 12.823 26.3933 12.823Z" fill="#F41E1E"/>
<path d="M48.1104 37.2011C47.8011 36.6052 47.4506 35.9298 47.0479 35.1374C44.8528 30.8177 43.4249 25.2307 43.0395 23.6207C42.9049 23.0639 42.5863 22.5688 42.1354 22.2154L42.0754 22.1686C41.5414 21.7534 40.8649 21.5663 40.1935 21.6481C38.4685 21.8434 35.9636 21.2172 34.9675 20.9391C34.5733 20.8277 34.1539 20.845 33.7702 20.9884C33.3866 21.1318 33.0586 21.3939 32.8341 21.7364L31.2455 24.1547C31.0455 24.4599 30.9365 24.8157 30.9313 25.1805C30.9261 25.5454 31.0248 25.9042 31.216 26.2149L32.2903 27.9661C32.1468 28.1758 32.0431 28.4101 31.9841 28.6572C31.9225 28.8983 31.9206 29.1509 31.9788 29.3929C32.0369 29.6349 32.1532 29.8591 32.3176 30.0459C32.8854 30.6584 33.5511 30.9646 34.2639 30.9646C34.9429 30.9646 35.6639 30.6863 36.3848 30.1291C36.9025 29.7284 37.4348 29.6571 37.9973 29.5817H38.0005C38.1666 31.0138 37.9577 32.4644 37.3943 33.7914C36.7218 35.4098 36.1678 38.2164 36.237 40.6808C31.9149 38.8426 27.8846 40.5019 26.5475 41.1753C23.931 39.1949 20.9115 38.4744 19.2005 38.2151C18.3451 36.6604 16.9664 35.4591 15.3093 34.8246C15.1211 34.762 14.9159 34.7766 14.7386 34.8652C14.5612 34.9539 14.4263 35.1092 14.3634 35.2972L14.3226 55.32C14.3225 55.473 14.3693 55.6225 14.4566 55.7482C14.5439 55.8739 14.6677 55.9699 14.8111 56.0233C15.874 56.3782 16.9878 56.5567 18.1084 56.5516C19.6488 56.5684 21.167 56.1837 22.5135 55.4354C23.3691 55.819 24.2514 56.1398 25.1535 56.3953C27.1421 56.951 29.1983 57.2274 31.263 57.2167C36.1389 57.2167 40.7394 55.7998 44.1403 54.3689C44.3441 54.2836 44.5687 54.2612 44.7854 54.3046C45.7479 54.4928 47.5295 54.6487 48.6515 53.5796C49.424 52.844 49.708 51.7171 49.4956 50.2287C49.4294 49.5008 49.6383 49.0354 49.9264 48.3931C50.4186 47.2956 51.0314 45.9298 50.4223 42.9419C49.9919 40.8269 49.4023 39.6907 48.1104 37.2011ZM48.5584 47.7793C48.2326 48.5056 47.8959 49.2566 48.0048 50.3893C48.0059 50.4018 48.0074 50.4134 48.0091 50.4253C48.1528 51.4137 48.0216 52.1096 47.6176 52.4936C46.9604 53.1197 45.6198 52.9388 45.0755 52.8326C44.5666 52.7313 44.0391 52.7846 43.5608 52.9854C39.0056 54.9018 32.2023 56.8032 25.6584 54.9788C21.7574 53.8913 19.7633 51.9614 19.7436 51.9421C19.6024 51.802 19.4112 51.7238 19.2123 51.7247C19.0134 51.7256 18.8229 51.8054 18.6829 51.9467C18.5428 52.088 18.4646 52.2791 18.4655 52.478C18.4664 52.677 18.5462 52.8674 18.6875 53.0075C18.7375 53.0574 19.4511 53.7553 20.8338 54.57C18.7814 55.3412 16.7338 54.9904 15.823 54.7604V36.7449C17.0025 37.4752 17.8819 38.6033 18.3021 39.9253C18.3525 40.085 18.4549 40.2233 18.593 40.3181C18.7311 40.4128 18.897 40.4586 19.0641 40.4482C19.2313 40.4377 19.3901 40.3717 19.5154 40.2604C19.6406 40.1492 19.725 39.9993 19.7551 39.8346C22.1209 40.3096 25.9964 41.6116 28.2141 45.1628C28.3195 45.3315 28.4876 45.4515 28.6814 45.4963C28.8752 45.5411 29.0789 45.5071 29.2476 45.4017C29.4164 45.2963 29.5363 45.1282 29.5811 44.9344C29.6259 44.7406 29.5919 44.5369 29.4865 44.3682C29.0046 43.5984 28.4344 42.8876 27.7875 42.2501C29.396 41.5587 32.8665 40.5271 36.4104 42.4259C36.6076 43.4836 36.978 44.3744 37.5791 44.9259C37.6516 44.9932 37.7366 45.0454 37.8293 45.0797C37.922 45.114 38.0205 45.1296 38.1193 45.1257C38.218 45.1217 38.315 45.0983 38.4047 45.0568C38.4943 45.0152 38.5749 44.9564 38.6418 44.8836C38.7086 44.8108 38.7604 44.7255 38.7942 44.6326C38.828 44.5398 38.8431 44.4411 38.8386 44.3424C38.8342 44.2437 38.8102 44.1468 38.7682 44.0574C38.7262 43.9679 38.6669 43.8877 38.5938 43.8212C37.4606 42.7806 37.343 37.8221 38.779 34.3659C39.4829 32.7187 39.7164 30.9086 39.4534 29.1367C39.9109 28.8249 40.2798 28.2736 40.3848 27.2526C40.4051 27.0547 40.346 26.8568 40.2204 26.7025C40.0949 26.5482 39.9132 26.4501 39.7153 26.4298C39.5174 26.4094 39.3196 26.4685 39.1653 26.5941C39.011 26.7196 38.9128 26.9013 38.8925 27.0992C38.8041 27.9596 38.6504 27.9802 37.7976 28.0944C37.1669 28.1791 36.3033 28.2944 35.4665 28.9423C34.3953 29.7712 33.8388 29.4694 33.439 29.0486C33.429 28.9236 33.6498 28.3492 35.1058 27.7814C36.0838 27.4001 36.6975 26.8288 36.9299 26.0834C37.2523 25.0494 36.676 24.1533 36.6091 24.0546C36.4976 23.8893 36.3251 23.775 36.1295 23.7366C35.9339 23.6982 35.731 23.7389 35.5653 23.8497C35.4836 23.9043 35.4136 23.9745 35.3591 24.0563C35.3047 24.1381 35.2669 24.2298 35.248 24.3262C35.2291 24.4226 35.2294 24.5217 35.2489 24.618C35.2684 24.7143 35.3067 24.8058 35.3616 24.8872C35.3643 24.8911 35.6106 25.2909 35.4956 25.6439C35.3799 25.9992 34.9235 26.2422 34.5609 26.3836C34.1649 26.5345 33.7831 26.7204 33.4201 26.9391L32.4925 25.4266C32.4507 25.3589 32.4291 25.2806 32.4303 25.2011C32.4314 25.1216 32.4551 25.044 32.4988 24.9774L34.0863 22.5601C34.1364 22.4836 34.2097 22.4251 34.2954 22.3932C34.3811 22.3612 34.4748 22.3575 34.5628 22.3824C35.9061 22.7574 38.4464 23.3546 40.3671 23.1367C40.6477 23.1018 40.9308 23.1792 41.1546 23.3519L41.2113 23.3963C41.3952 23.5404 41.5252 23.7423 41.5803 23.9694C42.0865 26.0841 43.5023 31.4714 45.71 35.8158C46.1156 36.6139 46.4676 37.2923 46.7781 37.8908C48.0771 40.3941 48.5631 41.3307 48.9524 43.2408C49.4658 45.7566 49.0045 46.7849 48.5584 47.7793Z" fill="#F41E1E"/>
<path d="M40.9789 37.3653C41.0188 37.1729 40.9817 36.9725 40.8754 36.8073C40.7691 36.642 40.6023 36.525 40.4107 36.4815C40.219 36.438 40.018 36.4714 39.8508 36.5746C39.6836 36.6777 39.5635 36.8424 39.5164 37.0332C39.4942 37.1308 38.9817 39.4434 39.8854 41.173C39.9775 41.3493 40.1359 41.4818 40.3257 41.5414C40.5155 41.6009 40.7212 41.5826 40.8975 41.4905C41.0738 41.3984 41.2063 41.24 41.2658 41.0502C41.3253 40.8604 41.307 40.6547 41.2149 40.4784C40.5703 39.2449 40.9732 37.3913 40.9789 37.3653Z" fill="#F41E1E"/>
<path d="M36.411 51.2036C35.1326 51.8293 33.7317 52.1646 32.3086 52.1856C30.8855 52.2066 29.4753 51.9129 28.179 51.3253C27.9978 51.2447 27.792 51.2392 27.6067 51.31C27.4214 51.3808 27.2717 51.5221 27.1904 51.703C27.109 51.8839 27.1026 52.0896 27.1726 52.2752C27.2426 52.4608 27.3832 52.6111 27.5638 52.6933C29.0156 53.3455 30.5883 53.6851 32.1799 53.6901C33.8702 53.6845 35.5374 53.2973 37.0571 52.5574C37.146 52.515 37.2257 52.4554 37.2916 52.3822C37.3575 52.309 37.4083 52.2235 37.4411 52.1307C37.474 52.0378 37.4882 51.9394 37.4831 51.8411C37.4779 51.7427 37.4534 51.6463 37.4109 51.5574C37.3685 51.4686 37.309 51.3889 37.2358 51.323C37.1626 51.2571 37.0771 51.2063 36.9843 51.1735C36.8914 51.1406 36.793 51.1264 36.6946 51.1315C36.5963 51.1367 36.4999 51.1612 36.411 51.2036Z" fill="#F41E1E"/>
<path d="M18.2759 40.6324C18.0794 40.6128 17.8831 40.6714 17.7296 40.7956C17.5761 40.9199 17.4778 41.0996 17.456 41.2959C17.4342 41.4922 17.4907 41.6891 17.6132 41.844C17.7358 41.9989 17.9144 42.0992 18.1104 42.1231C19.2589 42.2506 21.3789 42.7162 22.6739 44.4016C22.7951 44.5593 22.974 44.6625 23.1713 44.6883C23.3685 44.7141 23.5679 44.6605 23.7256 44.5393C23.8833 44.4181 23.9865 44.2392 24.0123 44.042C24.0381 43.8448 23.9845 43.6453 23.8633 43.4876C22.2298 41.3619 19.6616 40.7863 18.2759 40.6324Z" fill="#F41E1E"/>
<path d="M46.9817 43.5663L46.9731 43.5737C46.8682 43.6651 46.7906 43.7837 46.7487 43.9163C46.7068 44.049 46.7023 44.1906 46.7356 44.3257C46.8255 44.7092 46.8627 45.3473 46.524 46.2007C46.4527 46.3746 46.4478 46.5687 46.5102 46.746C46.5726 46.9233 46.6979 47.0715 46.8625 47.1625C46.9553 47.2115 47.0575 47.2404 47.1623 47.2474C47.267 47.2545 47.3721 47.2394 47.4707 47.2032C47.5693 47.1671 47.6592 47.1106 47.7346 47.0375C47.81 46.9644 47.8692 46.8763 47.9083 46.7788C48.378 45.6108 48.3428 44.6643 48.1991 43.9851C48.173 43.8577 48.1142 43.7394 48.0284 43.6417C47.9427 43.544 47.8329 43.4704 47.71 43.4281C47.587 43.3858 47.4552 43.3763 47.3275 43.4006C47.1998 43.4248 47.0806 43.4819 46.9817 43.5663Z" fill="#F41E1E"/>
<path d="M55.702 9.7908H54.048V7.54492C54.0462 6.02047 53.4399 4.55895 52.3619 3.48099C51.2839 2.40304 49.8224 1.79668 48.298 1.79492H11.423C9.89852 1.79668 8.437 2.40304 7.35905 3.48099C6.28109 4.55895 5.67473 6.02047 5.67297 7.54492V57.5449C5.67473 59.0694 6.28109 60.5309 7.35905 61.6088C8.437 62.6868 9.89852 63.2932 11.423 63.2949H48.298C49.8224 63.2932 51.2839 62.6868 52.3619 61.6088C53.4399 60.5309 54.0462 59.0694 54.048 57.5449V43.7547H55.702C56.3979 43.7539 57.0652 43.4771 57.5573 42.985C58.0494 42.4929 58.3262 41.8256 58.327 41.1297V35.5047C58.3262 34.8087 58.0494 34.1415 57.5573 33.6494C57.0651 33.1573 56.3979 32.8805 55.702 32.8797H54.048V32.2102H55.702C56.3979 32.2094 57.0651 31.9326 57.5573 31.4405C58.0494 30.9483 58.3262 30.2811 58.327 29.5852V23.9602C58.3262 23.2642 58.0494 22.597 57.5573 22.1049C57.0652 21.6127 56.3979 21.3359 55.702 21.3352H54.048V20.6658H55.702C56.3979 20.665 57.0651 20.3882 57.5573 19.8961C58.0494 19.404 58.3262 18.7367 58.327 18.0408V12.4158C58.3262 11.7198 58.0494 11.0526 57.5573 10.5605C57.0652 10.0684 56.3979 9.79156 55.702 9.7908ZM52.548 57.5449C52.5467 58.6717 52.0985 59.752 51.3018 60.5487C50.505 61.3455 49.4247 61.7936 48.298 61.7949H12.7142V16.58C12.7142 16.3811 12.6352 16.1904 12.4946 16.0497C12.3539 15.9091 12.1631 15.83 11.9642 15.83C11.7653 15.83 11.5745 15.9091 11.4339 16.0497C11.2932 16.1904 11.2142 16.3811 11.2142 16.58V61.7897C10.125 61.7349 9.09833 61.2639 8.3463 60.474C7.59427 59.6841 7.17425 58.6356 7.17297 57.5449V7.54492C7.17425 6.45428 7.59427 5.40577 8.3463 4.61587C9.09833 3.82597 10.125 3.35499 11.2142 3.30017V10.33C11.2142 10.529 11.2932 10.7197 11.4339 10.8604C11.5745 11.001 11.7653 11.08 11.9642 11.08C12.1631 11.08 12.3539 11.001 12.4946 10.8604C12.6352 10.7197 12.7142 10.529 12.7142 10.33V3.29492H48.298C49.4247 3.29621 50.505 3.74439 51.3018 4.54114C52.0985 5.33789 52.5467 6.41815 52.548 7.54492V57.5449ZM55.702 34.3797C56.0002 34.38 56.2862 34.4986 56.4971 34.7095C56.708 34.9204 56.8266 35.2064 56.827 35.5047V41.1297C56.8266 41.4279 56.708 41.7139 56.4971 41.9248C56.2862 42.1357 56.0002 42.2543 55.702 42.2547H54.048V34.3797H55.702ZM55.702 22.8352C56.0002 22.8355 56.2862 22.9541 56.4971 23.165C56.708 23.3759 56.8266 23.6619 56.827 23.9602V29.5852C56.8266 29.8834 56.708 30.1694 56.4971 30.3803C56.2862 30.5912 56.0002 30.7098 55.702 30.7102H54.048V22.8352H55.702ZM56.827 18.0408C56.8266 18.3391 56.708 18.625 56.4971 18.8359C56.2862 19.0468 56.0002 19.1655 55.702 19.1658H54.048V11.2908H55.702C56.0002 11.2911 56.2862 11.4098 56.4971 11.6207C56.708 11.8316 56.8266 12.1175 56.827 12.4158V18.0408Z" fill="#F41E1E"/>
<path d="M9.125 10.9337C8.92609 10.9337 8.73532 11.0127 8.59467 11.1534C8.45402 11.294 8.375 11.4848 8.375 11.6837V12.1398C8.375 12.3388 8.45402 12.5295 8.59467 12.6702C8.73532 12.8108 8.92609 12.8898 9.125 12.8898C9.32391 12.8898 9.51468 12.8108 9.65533 12.6702C9.79598 12.5295 9.875 12.3388 9.875 12.1398V11.6837C9.875 11.4848 9.79598 11.294 9.65533 11.1534C9.51468 11.0127 9.32391 10.9337 9.125 10.9337Z" fill="#F41E1E"/>
<path d="M9.125 13.8112C8.92609 13.8112 8.73532 13.8902 8.59467 14.0308C8.45402 14.1715 8.375 14.3622 8.375 14.5612V26.7917C8.375 26.9906 8.45402 27.1813 8.59467 27.322C8.73532 27.4626 8.92609 27.5417 9.125 27.5417C9.32391 27.5417 9.51468 27.4626 9.65533 27.322C9.79598 27.1813 9.875 26.9906 9.875 26.7917V14.5612C9.875 14.3622 9.79598 14.1715 9.65533 14.0308C9.51468 13.8902 9.32391 13.8112 9.125 13.8112Z" fill="#F41E1E"/>
</svg>
