<svg width="65" height="61" viewBox="0 0 65 61" fill="none" xmlns="http://www.w3.org/2000/svg">
<path d="M63.8 25.545C63.7 25.145 63.4 24.745 62.9 24.745C54.4 23.945 47.1 25.945 41.2 30.645C34.8 27.345 28.2 28.545 23.1 33.445C24.9 30.645 25.6 27.345 26.3 24.145C27.3 19.745 28.2 15.645 31.5 12.445L33.3 12.045C33.3 12.745 33.5 13.145 33.8 13.445C34.7 14.445 36.2 14.345 37.6 14.045C38.8 15.145 40.3 15.345 41.7 14.745C42.4 15.345 43.2 15.745 44.2 15.545C45 16.045 46.2 16.645 46.9 16.845C48.9 17.445 50.7 17.145 50.8 15.045C50.9 13.645 50.1 12.245 49 11.545C49.6 10.745 49.7 9.745 49.2 8.845L46.5 3.645C45.8 1.945 44.5 0.244995 40.6 0.844995C38.5 1.145 38.6 1.045 30.4 1.245C28.7 1.245 27.2 2.145 26.4 3.645C23.5 8.545 19.3 12.245 15.2 15.845C8.29998 21.945 1.09998 28.345 0.499984 40.445C0.399984 41.745 0.899984 43.045 1.69998 44.045C3.19998 45.845 6.49998 48.845 8.69998 49.345C23.5 52.545 30 60.645 46.8 50.945C47.5 54.745 48.9 57.745 51 60.045C51.3 60.445 51.9 60.445 52.3 60.245C68.4 50.145 64 26.545 63.8 25.545ZM48.9 14.945V15.145C48.7 15.145 48.2 15.145 47.6 14.945C47.3 14.845 46.8 14.645 46.3 14.345C46.4 14.245 45.8 14.845 47.5 13.045C48.5 13.345 48.9 14.145 48.9 14.945ZM52 58.045C50.2 55.845 49.1 52.945 48.6 49.245C48.5 48.545 47.7 48.145 47.1 48.545C30.3 58.745 24.7 50.745 9.19998 47.345C7.49998 46.945 4.59998 44.245 3.29998 42.745C2.69998 42.045 2.49998 41.345 2.49998 40.545C2.99998 29.345 9.59999 23.545 16.5 17.345C20.7 13.545 25 9.745 28.1 4.545C28.6 3.745 29.5 3.245 30.4 3.145C38.6 2.845 38.6 3.045 40.8 2.745C43.6 2.345 44.1 3.245 44.5 4.245L47.4 9.745C47.5 9.94499 47.5 10.145 47.3 10.345L46.7 10.945C46.5 9.545 45.7 8.445 45.9 7.545C46 7.045 45.7 6.445 45.2 6.345C44.7 6.245 44.1 6.545 44 7.045C43.4 9.245 45.2 10.445 44.9 12.945C44.3 13.645 43.9 13.845 43.4 13.445C44.4 10.945 42 9.245 42.9 7.245C43.1 6.745 42.9 6.145 42.4 5.945C41.9 5.745 41.3 5.945 41.1 6.445C39.9 9.345 42.4 11.545 41.5 12.845C40.6 13.345 39.9 13.345 39.2 12.645C39.5 10.845 38.1 9.045 38.8 8.245C39.2 7.845 39.2 7.245 38.8 6.845C38.4 6.445 37.8 6.445 37.4 6.845C35.7 8.545 37.2 11.045 37.2 12.145C36.2 12.445 35.6 12.245 35.5 12.145C35.5 12.145 35.4 11.845 35.8 11.145C36.2 10.445 35.5 9.545 34.7 9.745L31.5 10.445L30.2 8.845C29.9 8.445 29.2 8.345 28.8 8.745C28.4 9.045 28.3 9.745 28.7 10.145L29.8 11.445C26.4 14.945 25.4 19.445 24.4 23.745C23.5 27.845 22.6 31.745 19.7 34.645C18.3 35.945 16.6 37.045 14.5 37.745C14 37.945 13.7 38.545 13.9 39.045C14.1 39.545 14.7 39.845 15.2 39.645C17.5 38.845 19.3 37.745 20.9 36.345C22.3 36.245 23.8 35.745 25.2 34.445C29.8 30.045 35.2 29.445 41 32.745C42.2 33.445 43.4 34.245 44.7 35.245C45.1 35.545 45.8 35.545 46.1 35.045C46.4 34.645 46.4 33.945 46 33.645C45.1 32.845 44.2 32.245 43.3 31.645C48.5 27.745 54.8 26.045 62.2 26.545C62.6 30.645 64.6 49.445 52 58.045ZM11.2 43.145C10.5 43.045 9.99998 42.745 9.49998 42.445C9.29998 42.345 9.19998 42.145 8.99998 42.045C7.69998 40.945 6.99998 39.245 7.29998 37.645C7.39998 37.045 7.09998 36.545 6.49998 36.445C5.99998 36.345 5.39998 36.745 5.29998 37.245C4.79998 39.645 5.79998 42.045 7.69998 43.645C7.89998 43.745 8.09998 43.945 8.29998 44.045C8.99998 44.545 9.79998 44.945 10.7 45.145H10.9C11.4 45.145 11.8 44.845 11.9 44.345C12 43.845 11.7 43.345 11.2 43.145ZM55.4 47.445C53.1 46.145 51.3 44.145 49.8 41.445C49.5 40.945 48.9 40.745 48.4 41.045C43 44.145 37.8 44.945 33 43.445C32.5 43.245 31.9 43.545 31.7 44.045C31.5 44.545 31.8 45.145 32.3 45.345C37.4 47.045 42.9 46.345 48.5 43.345C50.1 45.845 52 47.845 54.3 49.245C54.8 49.545 55.4 49.345 55.7 48.845C56 48.345 55.8 47.745 55.4 47.445Z" fill="#F41E1E"/>
</svg>
