<svg width="64" height="65" viewBox="0 0 64 65" fill="none" xmlns="http://www.w3.org/2000/svg">
<path d="M63.0625 47.5802C63.5802 47.5802 64 47.1605 64 46.6427V22.0168C64 19.127 61.649 16.7759 58.7591 16.7759H58.5514C58.4285 16.4714 58.2423 16.1999 58.0088 15.9764V7.9754C58.0088 7.14853 57.6505 6.3634 57.0257 5.82153L51.6225 1.13553C50.7903 0.413279 49.4831 1.00328 49.4831 2.11203V15.9764C49.2497 16.1999 49.0634 16.4715 48.9405 16.7759H43.0554V10.8677C43.5457 9.68228 44.5889 8.69078 44.1292 7.04928L42.8293 2.4049C42.5677 1.4709 41.7077 0.818779 40.738 0.818779H38.672C37.7021 0.818779 36.8421 1.47103 36.5807 2.40503L35.2806 7.04928C35.0765 7.7784 35.1556 8.55053 35.5036 9.22303L36.3545 10.8677V16.7759H29.1336V14.3695C29.1336 13.3807 29.5868 12.4659 30.3456 11.9223C32.0516 10.7002 32.8257 8.5944 32.3177 6.55753L31.2773 2.38603C31.0475 1.46478 30.224 0.821279 29.2746 0.821279H28.56C27.1045 0.821279 25.9204 2.00553 25.9204 3.46103V6.45603C25.9204 8.33778 22.9645 8.32703 22.9645 6.6079V3.49478C22.9645 2.03278 21.7916 0.833529 20.3499 0.821404C20.3415 0.821404 20.3331 0.821279 20.3246 0.821279C18.9522 0.821279 17.7651 1.74728 17.4326 3.08078L16.5654 6.5574C16.0524 8.6139 16.8839 10.7977 18.6344 11.9913C19.4201 12.527 19.8892 13.4482 19.8892 14.4554V16.7758H14.7004V14.0597C14.7004 13.4532 14.6269 12.9174 14.4548 12.2684L11.7828 2.19728C11.564 1.37265 10.8439 0.818779 9.99088 0.818779C9.13788 0.818779 8.41775 1.37278 8.199 2.19728L5.52712 12.2685C5.355 12.9175 5.2815 13.4534 5.2815 14.0598V16.7759H5.24075C2.351 16.7759 0 19.127 0 22.0168V59.0305C0 61.9203 2.351 64.2714 5.24087 64.2714H58.7591C61.649 64.2714 64 61.9203 64 59.0305V51.0259C64 50.508 63.5802 50.0884 63.0625 50.0884C62.5448 50.0884 62.125 50.508 62.125 51.0259V59.0305C62.125 60.8865 60.6151 62.3964 58.7591 62.3964H5.24087C3.38487 62.3964 1.875 60.8865 1.875 59.0305V39.9493H62.125V46.6427C62.125 47.1604 62.5448 47.5802 63.0625 47.5802ZM9.99113 2.75603L11.0926 6.90815H8.88937L9.99113 2.75603ZM8.39188 8.78315H11.59C12.6908 12.945 12.6684 12.8182 12.7304 13.1223H7.25125C7.31387 12.8157 7.29425 12.9327 8.39188 8.78315ZM12.8251 38.0743H7.1565V27.4933C7.1565 26.9754 6.73675 26.5558 6.219 26.5558C5.70125 26.5558 5.2815 26.9754 5.2815 27.4933V38.0743H1.875V22.0168C1.875 20.1608 3.38487 18.6509 5.24087 18.6509H5.28162V23.1099C5.28162 23.6278 5.70138 24.0474 6.21912 24.0474C6.73687 24.0474 7.15662 23.6278 7.15662 23.1099V14.9973H12.8251V38.0743ZM19.889 38.0743H14.7001V18.6509H19.889V38.0743ZM37.086 7.55478L38.3861 2.91065C38.4219 2.78303 38.5394 2.6939 38.6719 2.6939H40.7379C40.8704 2.6939 40.9879 2.78303 41.0236 2.91053L42.3237 7.55478C42.3995 7.8254 42.3701 8.1119 42.241 8.36153L41.5474 9.70216H37.8623L37.1686 8.36153C37.0396 8.1119 37.0103 7.8254 37.086 7.55478ZM41.1805 11.577V26.972H38.2294V11.577H41.1805ZM27.2585 14.3695V38.0743H21.7639V14.4555C21.7639 12.8334 20.994 11.3379 19.7038 10.4515C18.5984 9.69215 18.0503 8.35065 18.3748 7.0494L19.2515 3.53465C19.3749 3.0399 19.8154 2.6964 20.3246 2.6964C20.3277 2.6964 20.3309 2.6964 20.334 2.69653C20.7505 2.6999 21.0893 3.05815 21.0893 3.4949V6.60803C21.0893 10.8194 27.7951 10.8269 27.7951 6.45615V3.46115C27.7951 3.03878 28.1375 2.6964 28.5599 2.6964C29.0665 2.6964 29.508 3.04128 29.6306 3.5329L30.5064 7.04403C30.8247 8.32028 30.3045 9.63878 29.2383 10.409C27.9984 11.3049 27.2585 12.784 27.2585 14.3695ZM34.6431 38.0743H29.1336V18.6509H36.3545V26.972H35.9985C34.3729 26.972 33.0504 28.2945 33.0504 29.9202C33.0504 31.0573 33.6979 32.0454 34.6432 32.5369V38.0743H34.6431ZM42.8918 38.0743H36.518V32.8684H42.8918V38.0743ZM43.4115 30.9933H35.9984C35.4066 30.9933 34.9253 30.5118 34.9253 29.9202C34.9253 29.3285 35.4066 28.847 35.9984 28.847H43.4115C44.0033 28.847 44.4846 29.3285 44.4846 29.9202C44.4846 30.5118 44.0033 30.9933 43.4115 30.9933ZM48.7736 38.0743H44.7668V32.537C45.712 32.0454 46.3596 31.0573 46.3596 29.9203C46.3596 28.2947 45.0371 26.9722 43.4115 26.9722H43.0555V18.651H48.7736V38.0743ZM51.3582 3.38815L55.7972 7.2379C56.0111 7.42353 56.1339 7.6924 56.1339 7.9754V10.1927L51.3582 6.0509V3.38815ZM51.3582 8.5329L56.1339 12.6747V15.3379H51.3582V8.5329ZM56.8435 38.0743H50.6486V17.6309C50.6486 17.4003 50.8361 17.2128 51.0667 17.2128H56.4254C57.2363 17.2128 56.6576 17.4033 56.8435 38.0743ZM58.7185 38.0743V18.6509H58.7593C60.6152 18.6509 62.1251 20.1608 62.1251 22.0168V38.0743H58.7185Z" fill="#F41E1E"/>
</svg>
