<svg width="57" height="57" viewBox="0 0 57 57" fill="none" xmlns="http://www.w3.org/2000/svg">
<path d="M56.6191 16.4199C56.6206 15.8944 56.5178 15.3739 56.3166 14.8884C56.1155 14.403 55.82 13.9622 55.4473 13.5918L52.0906 10.235L54.6914 7.63428C55.3457 6.97839 55.7131 6.08977 55.7131 5.16333C55.7131 4.23689 55.3457 3.34828 54.6914 2.69238C54.3818 2.30123 53.9934 1.97946 53.5515 1.74793C53.1096 1.51639 52.624 1.38025 52.1261 1.34831C51.6283 1.31637 51.1292 1.38935 50.6614 1.56252C50.1935 1.73569 49.7672 2.00519 49.4101 2.35357L46.8101 4.95428L43.4531 1.59717C42.703 0.84714 41.6857 0.425781 40.625 0.425781C39.5643 0.425781 38.547 0.84714 37.7969 1.59717L34.8059 4.58817C29.9001 -0.0120683 22.3965 7.67473 27.1368 12.4718L33.2148 18.5498L18.5046 33.2595L12.4268 27.1816C7.63725 22.4456 -0.0460033 29.9316 4.54326 34.8502L1.55273 37.8413C1.18121 38.2127 0.886496 38.6536 0.685424 39.1389C0.484351 39.6242 0.380859 40.1444 0.380859 40.6697C0.380859 41.195 0.484351 41.7151 0.685424 42.2004C0.886496 42.6857 1.18121 43.1267 1.55273 43.4981L4.90936 46.8548L2.30859 49.4556C-0.949823 52.7707 4.25268 58.0077 7.58992 54.7367L10.1899 52.1356L13.5469 55.4927C14.297 56.2427 15.3143 56.6641 16.375 56.6641C17.4358 56.6641 18.4531 56.2427 19.2032 55.4927L22.1942 52.5017C27.0996 57.1026 34.6036 49.4144 29.8632 44.618L23.7852 38.54L38.4954 23.8303L44.5732 29.9082C45.1019 30.4221 45.7332 30.8183 46.4258 31.071C47.1184 31.3237 47.8566 31.427 48.592 31.3743C49.3274 31.3215 50.0432 31.1138 50.6927 30.7649C51.3421 30.4159 51.9104 29.9336 52.3603 29.3495C53.2969 28.4092 53.8308 27.1413 53.8488 25.8142C53.8668 24.4871 53.3676 23.2051 52.4568 22.2397L55.4473 19.2485C55.82 18.878 56.1155 18.4372 56.3166 17.9516C56.5178 17.4661 56.6206 16.9455 56.6191 16.4199ZM50.8242 3.76806C52.2444 2.32613 54.7188 4.79745 53.2773 6.22023L50.6768 8.8208L48.2246 6.36816L50.8242 3.76806ZM6.17578 53.3218C4.75569 54.764 2.281 52.2918 3.72268 50.8696L6.32324 48.269L8.77539 50.7217L6.17578 53.3218ZM17.7891 54.0786C17.408 54.442 16.9016 54.6448 16.375 54.6448C15.8484 54.6448 15.342 54.442 14.9609 54.0786L2.9668 42.084C2.59393 41.7077 2.38475 41.1994 2.38475 40.6697C2.38475 40.1399 2.59393 39.6316 2.9668 39.2554L5.94627 36.2754L20.7695 51.0981L17.7891 54.0786ZM28.4492 50.4326C28.1373 50.8831 27.72 51.2505 27.2338 51.503C26.7475 51.7555 26.2069 51.8853 25.6589 51.8812C25.111 51.8771 24.5724 51.7392 24.09 51.4795C23.6075 51.2198 23.1958 50.8461 22.8906 50.3911L6.05371 33.5542C5.72727 33.209 5.4801 32.7967 5.32946 32.3461C5.17882 31.8954 5.12834 31.4174 5.18154 30.9452C5.23474 30.4731 5.39033 30.0183 5.63747 29.6125C5.8846 29.2067 6.21732 28.8597 6.6124 28.5958C7.19642 28.0132 7.98764 27.6861 8.81253 27.686C9.63743 27.686 10.4287 28.0132 11.0127 28.5957L28.4492 46.0322C29.0318 46.6163 29.3589 47.4075 29.3589 48.2324C29.3589 49.0573 29.0318 49.8486 28.4492 50.4326ZM37.081 22.4165L22.371 37.126L19.919 34.6733L34.629 19.9639L37.081 22.4165ZM50.9463 27.9355C50.6824 28.3307 50.3354 28.6635 49.9295 28.9108C49.5237 29.158 49.0688 29.3136 48.5965 29.3668C48.1243 29.4199 47.6462 29.3694 47.1955 29.2187C46.7448 29.0679 46.3325 28.8206 45.9873 28.4941L28.5508 11.0576C27.9682 10.4737 27.6411 9.6825 27.6411 8.85767C27.6411 8.03283 27.9682 7.24167 28.5508 6.65771C28.8727 6.22327 29.2873 5.86595 29.7645 5.61166C30.2417 5.35738 30.7695 5.21251 31.3096 5.18757C31.8592 5.21561 32.3957 5.36579 32.88 5.62721C33.3643 5.88862 33.7843 6.2547 34.1093 6.6988L50.3467 22.936L50.9463 23.5356C51.5288 24.1196 51.856 24.9108 51.856 25.7356C51.856 26.5604 51.5288 27.3516 50.9463 27.9355ZM54.0332 17.8345L51.0537 20.8145L36.2305 5.9917L39.2109 3.01123C39.592 2.64782 40.0984 2.44508 40.625 2.44508C41.1516 2.44508 41.658 2.64782 42.0391 3.01123L54.0332 15.0059C54.4061 15.3821 54.6152 15.8904 54.6152 16.4202C54.6152 16.9499 54.4061 17.4582 54.0332 17.8345Z" fill="#F41E1E"/>
</svg>
