<svg width="59" height="64" viewBox="0 0 59 64" fill="none" xmlns="http://www.w3.org/2000/svg">
<path d="M58.465 63.045C58.5592 63.0444 58.6513 63.0171 58.7307 62.9665C58.8101 62.9158 58.8736 62.8437 58.9138 62.7585C58.954 62.6734 58.9694 62.5786 58.9581 62.4851C58.9468 62.3915 58.9093 62.3031 58.85 62.23L39.405 38.405C39.3585 38.3476 39.2998 38.3013 39.2333 38.2693C39.1667 38.2373 39.0939 38.2205 39.02 38.22H34.795C34.132 38.22 33.4961 37.9566 33.0272 37.4877C32.5584 37.0189 32.295 36.383 32.295 35.72C32.2981 35.3823 32.3689 35.0488 32.5032 34.739C32.6375 34.4292 32.8325 34.1495 33.0768 33.9164C33.3211 33.6833 33.6096 33.5016 33.9253 33.382C34.2411 33.2623 34.5776 33.2073 34.915 33.22C39.285 33.22 42.135 34.43 44.66 40.81C44.6971 40.903 44.7612 40.9828 44.8441 41.0389C44.927 41.0951 45.0249 41.1251 45.125 41.125H50.82C50.8955 41.1267 50.9704 41.1112 51.0391 41.0798C51.1078 41.0484 51.1685 41.0018 51.2166 40.9436C51.2647 40.8854 51.299 40.817 51.3169 40.7437C51.3348 40.6703 51.3359 40.5938 51.32 40.52C51.235 40.115 49.1 30.585 44.055 25.68C43.89 25.52 43.715 25.375 43.555 25.225C43.456 24.2014 43.755 23.1789 44.39 22.37C45.1667 21.3797 46.2946 20.7262 47.54 20.545L48.88 21.21C49.1268 21.333 49.3806 21.4415 49.64 21.535C49.7147 21.5627 49.795 21.5722 49.8742 21.5627C49.9533 21.5531 50.029 21.5247 50.095 21.48C50.1612 21.434 50.2154 21.3727 50.2528 21.3014C50.2903 21.23 50.3099 21.1506 50.31 21.07C50.3249 18.839 51.1312 16.6858 52.5852 14.9936C54.0393 13.3015 56.0467 12.1804 58.25 11.83C58.3292 11.8172 58.4042 11.7855 58.4686 11.7377C58.533 11.6898 58.5849 11.6271 58.62 11.555C58.6568 11.4839 58.676 11.405 58.676 11.325C58.676 11.2449 58.6568 11.166 58.62 11.095C58.03 10.02 47.95 0.0949707 32.665 0.0949707C26.205 0.0949707 4.795 1.81997 0.565005 23.98C0.206242 25.9761 0.0388165 28.002 0.0650048 30.03C0.0350048 39.545 1.74 42.94 3.24 45.945C3.54 46.55 3.83 47.125 4.1 47.74C6.79 53.845 5.995 58.42 5.285 60.605C5.11262 61.1797 4.87614 61.7331 4.58 62.255C4.52625 62.3417 4.50031 62.4428 4.50568 62.5447C4.51104 62.6466 4.54744 62.7444 4.61 62.825C4.6571 62.8862 4.71772 62.9356 4.78712 62.9694C4.85651 63.0033 4.9328 63.0206 5.01 63.02C5.05639 63.0273 5.10362 63.0273 5.15 63.02C5.26 62.985 16.245 59.575 13.605 45.93C11.415 34.605 12.325 31.165 12.56 30.525C13.0372 30.3344 13.5462 30.236 14.06 30.235C16.215 30.235 18.56 31.435 18.64 33.66C18.6376 33.6866 18.6376 33.7134 18.64 33.74C17.58 38.675 18.675 43.74 20.915 46.645C23.555 50.1 20.77 52.59 20.65 52.695C20.5643 52.7692 20.5064 52.8704 20.4857 52.982C20.4651 53.0935 20.483 53.2087 20.5365 53.3087C20.59 53.4087 20.6759 53.4876 20.7801 53.5323C20.8843 53.5771 21.0007 53.585 21.11 53.555L30 51.155L58.27 62.98C58.3298 63.0149 58.3962 63.037 58.465 63.045ZM57.25 11.045C55.5543 11.4603 53.9903 12.2952 52.7016 13.4729C51.4129 14.6507 50.4409 16.1334 49.875 17.785C49.5881 18.6134 49.41 19.4756 49.345 20.35C48.875 20.11 48.375 19.85 47.845 19.61C46.1024 18.7031 44.2999 17.9162 42.45 17.255C42.615 10.7 47.32 5.94497 48.45 4.91497C50.522 5.94487 52.4966 7.1598 54.35 8.54497C50.945 9.30497 48.35 12.545 46.965 15.49C46.9106 15.6101 46.9058 15.7468 46.9517 15.8704C46.9975 15.994 47.0904 16.0945 47.21 16.15C47.275 16.1831 47.347 16.2002 47.42 16.2C47.5162 16.1998 47.6103 16.1718 47.691 16.1195C47.7717 16.0672 47.8356 15.9927 47.875 15.905C49.255 12.905 51.96 9.64497 55.425 9.40497C56.062 9.90642 56.6713 10.4422 57.25 11.01V11.045ZM37.75 15.95C36.75 9.30997 41.21 3.67497 42.25 2.48497C44.0284 2.99768 45.7665 3.6411 47.45 4.40997C45.905 5.90997 41.735 10.49 41.45 16.88C40.2295 16.4815 38.9855 16.1592 37.725 15.915L37.75 15.95ZM12.625 46.1C14.625 56.39 8.625 60.375 5.995 61.6C6.07 61.395 6.155 61.17 6.235 60.92C6.285 60.765 6.335 60.595 6.385 60.42C9.23001 58.325 12.7 54.54 11.035 45.92C11.0098 45.7874 10.933 45.6702 10.8214 45.5942C10.7098 45.5183 10.5726 45.4898 10.44 45.515C10.3074 45.5402 10.1902 45.617 10.1143 45.7286C10.0383 45.8402 10.0098 45.9774 10.035 46.11C11.41 53.23 9.085 56.8 6.72001 58.865C7.17 56.225 7.155 52.24 5 47.365C4.72 46.73 4.415 46.12 4.12 45.525C2.62 42.48 1.02 39.335 1.02 30.025C1.0011 28.0602 1.16851 26.0981 1.52 24.165C3.14 15.755 7.425 9.50497 14.275 5.54497C21.125 1.58497 28.71 1.04497 32.655 1.04497H33.255C32.7184 2.21187 32.3239 3.43899 32.08 4.69997C32.0533 4.82922 32.0788 4.96377 32.1509 5.07429C32.2231 5.18481 32.336 5.26234 32.465 5.28997C32.4999 5.29447 32.5351 5.29447 32.57 5.28997C32.6863 5.29256 32.7998 5.25453 32.8911 5.18244C32.9823 5.11034 33.0456 5.00869 33.07 4.89497C33.3092 3.56293 33.7492 2.27492 34.375 1.07497C36.6603 1.20921 38.9265 1.571 41.14 2.15497C39.68 3.93997 35.875 9.27997 36.69 15.74C35.6455 15.5764 34.5918 15.4779 33.535 15.445C32.6171 13.463 32.1999 11.2859 32.32 9.10497C32.3234 9.03724 32.313 8.96952 32.2894 8.90594C32.2658 8.84236 32.2295 8.78425 32.1827 8.73514C32.1359 8.68603 32.0797 8.64695 32.0173 8.62027C31.9549 8.5936 31.8878 8.57989 31.82 8.57997C31.6874 8.57997 31.5602 8.63265 31.4664 8.72642C31.3727 8.82019 31.32 8.94736 31.32 9.07997C31.2026 11.2637 31.5839 13.4455 32.435 15.46C31.1828 15.4825 29.9348 15.613 28.705 15.85C27.3 13.92 26.265 10.455 26.265 7.60497C26.265 7.47236 26.2123 7.34519 26.1186 7.25142C26.0248 7.15765 25.8976 7.10497 25.765 7.10497C25.6324 7.10497 25.5052 7.15765 25.4115 7.25142C25.3177 7.34519 25.265 7.47236 25.265 7.60497C25.2994 10.5798 26.1224 13.4922 27.65 16.045C27.115 16.18 26.59 16.325 26.065 16.5C17.635 19.32 13.255 26.77 11.755 29.87C11.5 30.29 10.15 33.31 12.625 46.1ZM14.06 29.215C13.7615 29.2141 13.4636 29.2409 13.17 29.295C15 25.93 19.12 19.88 26.38 17.46C32.205 15.525 38.88 16.33 46.185 19.86C45.1535 20.2475 44.2523 20.9182 43.585 21.795C42.9952 22.5591 42.633 23.4742 42.54 24.435C40.4075 22.8565 37.8786 21.901 35.235 21.675C31.195 21.265 27.695 22.045 24.825 24.045C23.0885 25.2682 21.6412 26.8571 20.585 28.7C20.0037 29.7024 19.5294 30.7633 19.17 31.865C18.24 30.14 16.085 29.215 14.06 29.215ZM30.225 50.165C30.1649 50.1394 30.1003 50.1258 30.035 50.125C29.992 50.1174 29.948 50.1174 29.905 50.125L22.315 52.16C23.09 50.855 23.735 48.63 21.725 45.995C18.91 42.31 18.035 34.995 21.45 29.195C22.4338 27.4787 23.7801 25.9976 25.395 24.855C28.06 23.005 31.34 22.265 35.135 22.65C38.2304 22.8997 41.1397 24.2287 43.355 26.405C47.475 30.405 49.64 37.95 50.195 40.135H45.5C43.1 34.325 40.31 32.25 34.93 32.25C34.4466 32.1966 33.9574 32.2446 33.4936 32.3908C33.0298 32.537 32.6016 32.7783 32.2362 33.0992C31.8708 33.4202 31.5763 33.8137 31.3715 34.2548C31.1667 34.6959 31.0561 35.1748 31.0466 35.6611C31.0372 36.1473 31.1292 36.6301 31.3168 37.0788C31.5044 37.5275 31.7834 37.9322 32.1361 38.267C32.4888 38.6019 32.9073 38.8596 33.3652 39.0236C33.823 39.1877 34.3099 39.2546 34.795 39.22H38.795L56.825 61.285L30.225 50.165Z" fill="#F41E1E"/>
</svg>
