<svg width="25" height="25" viewBox="0 0 25 25" fill="none" xmlns="http://www.w3.org/2000/svg">
<g clip-path="url(#clip0_144_1139)">
<path d="M11.915 24.0419C12.0454 24.2375 12.2649 24.355 12.5 24.355C12.7351 24.355 12.9546 24.2375 13.085 24.0419C14.7491 21.5459 17.2 18.4634 18.908 15.3283C20.2736 12.8216 20.9375 10.6837 20.9375 8.79248C20.9375 4.14004 17.1524 0.35498 12.5 0.35498C7.84756 0.35498 4.0625 4.14004 4.0625 8.79248C4.0625 10.6837 4.72639 12.8216 6.09205 15.3283C7.79872 18.461 10.2544 21.5511 11.915 24.0419ZM12.5 1.76123C16.377 1.76123 19.5312 4.91545 19.5312 8.79248C19.5312 10.4427 18.9234 12.3605 17.6731 14.6556C16.2009 17.3579 14.1 20.0991 12.5 22.4035C10.9002 20.0994 8.79922 17.358 7.32692 14.6556C6.07658 12.3605 5.46875 10.4427 5.46875 8.79248C5.46875 4.91545 8.62297 1.76123 12.5 1.76123Z" fill="white"/>
<path d="M12.5 13.0112C14.8262 13.0112 16.7188 11.1187 16.7188 8.79248C16.7188 6.46626 14.8262 4.57373 12.5 4.57373C10.1738 4.57373 8.28125 6.46626 8.28125 8.79248C8.28125 11.1187 10.1738 13.0112 12.5 13.0112ZM12.5 5.97998C14.0508 5.97998 15.3125 7.24167 15.3125 8.79248C15.3125 10.3433 14.0508 11.605 12.5 11.605C10.9492 11.605 9.6875 10.3433 9.6875 8.79248C9.6875 7.24167 10.9492 5.97998 12.5 5.97998Z" fill="white"/>
</g>
<defs>
<clipPath id="clip0_144_1139">
<rect width="24" height="24" fill="white" transform="translate(0.5 0.35498)"/>
</clipPath>
</defs>
</svg>
