<svg width="25" height="17" viewBox="0 0 25 17" fill="none" xmlns="http://www.w3.org/2000/svg">
<path d="M22.0181 0.0625H2.23685C1.07139 0.0625 0.127472 1.01228 0.127472 2.17188V14.8281C0.127472 15.9946 1.07833 16.9375 2.23685 16.9375H22.0181C23.1738 16.9375 24.1275 15.9986 24.1275 14.8281V2.17188C24.1275 1.01434 23.1873 0.0625 22.0181 0.0625ZM21.7227 1.46875C21.2917 1.89742 13.8751 9.27499 13.619 9.5297C13.2206 9.92814 12.6909 10.1475 12.1275 10.1475C11.564 10.1475 11.0343 9.92809 10.6346 9.52839C10.4624 9.35706 3.12761 2.06097 2.53225 1.46875H21.7227ZM1.53372 14.5419V2.45898L7.6105 8.50375L1.53372 14.5419ZM2.53314 15.5312L8.60753 9.49548L9.64155 10.5241C10.3056 11.1881 11.1884 11.5538 12.1275 11.5538C13.0665 11.5538 13.9494 11.1881 14.6121 10.5254L15.6474 9.49548L21.7218 15.5312H2.53314ZM22.7212 14.5419L16.6444 8.50375L22.7212 2.45898V14.5419Z" fill="black"/>
</svg>
