<svg width="20" height="25" viewBox="0 0 20 25" fill="none" xmlns="http://www.w3.org/2000/svg">
<path d="M10.1988 0.5C3.62096 0.5 0.122803 4.71519 0.122803 9.3114C0.122803 11.443 1.31386 14.1011 3.22044 14.9441C3.50996 15.0747 3.66746 15.0192 3.73197 14.7506C3.78897 14.5466 4.03948 13.5641 4.16098 13.1006C4.19849 12.9521 4.17899 12.8231 4.05898 12.6835C3.42595 11.9515 2.92343 10.618 2.92343 9.3669C2.92343 6.16125 5.47204 3.04861 9.80874 3.04861C13.5589 3.04861 16.1825 5.48472 16.1825 8.96938C16.1825 12.9071 14.0989 15.6312 11.3913 15.6312C9.89274 15.6312 8.77669 14.4551 9.13071 13.0001C9.55823 11.2675 10.3968 9.4044 10.3968 8.15484C10.3968 7.03429 9.76374 6.10725 8.47068 6.10725C6.94511 6.10725 5.70755 7.61782 5.70755 9.64591C5.70755 10.9345 6.16357 11.8045 6.16357 11.8045C6.16357 11.8045 4.65451 17.9008 4.37399 19.0393C3.89997 20.9669 4.4385 24.0886 4.485 24.3571C4.5135 24.5056 4.68001 24.5521 4.77301 24.4306C4.92152 24.2356 6.7456 21.6329 7.25712 19.7519C7.44313 19.0663 8.20667 16.2867 8.20667 16.2867C8.70919 17.1943 10.1598 17.9548 11.7048 17.9548C16.301 17.9548 19.6222 13.9151 19.6222 8.90188C19.6057 4.09566 15.4925 0.5 10.1988 0.5Z" fill="#333333"/>
</svg>
