<svg width="14" height="12" viewBox="0 0 14 12" fill="none" xmlns="http://www.w3.org/2000/svg">
<path d="M12.48 1.73003C13.23 2.55503 13.68 3.45503 13.68 4.95503C13.68 7.58003 11.805 9.90503 9.17996 11.105L8.50496 10.13C10.98 8.78003 11.505 7.05503 11.655 5.93003C11.28 6.15503 10.755 6.23003 10.23 6.15503C8.87996 6.00503 7.82996 4.95503 7.82996 3.53003C7.82996 2.85503 8.12996 2.18003 8.57996 1.65503C9.10496 1.13003 9.70496 0.905029 10.455 0.905029C11.28 0.905029 12.03 1.28003 12.48 1.73003ZM4.97996 1.73003C5.72996 2.55503 6.17996 3.45503 6.17996 4.95503C6.17996 7.58003 4.30496 9.90503 1.67996 11.105L1.00496 10.13C3.47996 8.78003 4.00496 7.05503 4.15496 5.93003C3.77996 6.15503 3.25496 6.23003 2.72996 6.15503C1.37996 6.00503 0.329956 4.88003 0.329956 3.53003C0.329956 2.85503 0.629956 2.18003 1.07996 1.65503C1.60496 1.13003 2.20496 0.905029 2.95496 0.905029C3.77996 0.905029 4.52996 1.28003 4.97996 1.73003Z" fill="white"/>
</svg>
