<svg width="13" height="12" viewBox="0 0 13 12" fill="none" xmlns="http://www.w3.org/2000/svg">
<path d="M12.3469 6.3665L7.84687 10.8665C7.65937 11.0353 7.44375 11.1196 7.2 11.1196C6.95625 11.1196 6.74062 11.0353 6.55312 10.8665C6.38437 10.679 6.3 10.4634 6.3 10.2196C6.3 9.97588 6.38437 9.76025 6.55312 9.57275L9.53438 6.61963H0.9C0.6375 6.61963 0.421875 6.53525 0.253125 6.3665C0.084375 6.19775 0 5.98213 0 5.71963C0 5.45713 0.084375 5.2415 0.253125 5.07275C0.421875 4.904 0.6375 4.81963 0.9 4.81963H9.53438L6.55312 1.8665C6.38437 1.679 6.3 1.46338 6.3 1.21963C6.3 0.97588 6.38437 0.760255 6.55312 0.572755C6.74062 0.404005 6.95625 0.31963 7.2 0.31963C7.44375 0.31963 7.65937 0.404005 7.84687 0.572755L12.3469 5.07275C12.5156 5.26025 12.6 5.47588 12.6 5.71963C12.6 5.96338 12.5156 6.179 12.3469 6.3665Z" fill="#F41E1E"/>
</svg>
