<svg width="18" height="16" viewBox="0 0 18 16" fill="none" xmlns="http://www.w3.org/2000/svg">
<path d="M10.1062 0.552637L12.1374 4.67764L16.7312 5.33389C17.1478 5.43805 17.4083 5.66722 17.5124 6.02139C17.6374 6.39639 17.5541 6.74014 17.2624 7.05264L13.9499 10.2401L14.7312 14.8026C14.7937 15.2193 14.6687 15.5422 14.3562 15.7714C14.0437 16.0006 13.6895 16.0214 13.2937 15.8339L9.19993 13.7401L5.10618 15.8651C4.71034 16.0526 4.35618 16.0318 4.04368 15.8026C3.73118 15.5735 3.60618 15.2506 3.66868 14.8339L4.44993 10.2714L1.13743 7.05264C0.84576 6.74014 0.762427 6.39639 0.887427 6.02139C0.991593 5.66722 1.25201 5.44847 1.66868 5.36514L6.26243 4.67764L8.29368 0.552637C8.52284 0.177637 8.82493 -0.0098629 9.19993 -0.0098629C9.59576 -0.0098629 9.89784 0.177637 10.1062 0.552637Z" fill="#F41E1E"/>
</svg>
