<svg width="20" height="20" viewBox="0 0 20 20" fill="none" xmlns="http://www.w3.org/2000/svg">
<path d="M8.88081 7.31132C8.36694 7.42732 8.11002 7.73397 8.11006 8.23128C8.20956 8.76174 8.51626 9.01871 9.03014 9.00218C9.57717 8.95249 10.033 9.11001 10.3978 9.47473C10.7625 9.83945 10.92 10.2953 10.8703 10.8424C10.8538 11.3562 11.1108 11.6629 11.6412 11.7624C11.8899 11.779 12.1054 11.6962 12.2877 11.5138C12.4369 11.3647 12.528 11.1906 12.5612 10.9917C12.644 9.94735 12.3206 9.04388 11.5912 8.28129C10.8286 7.55185 9.92515 7.22852 8.88081 7.31132ZM8.50756 3.95448C8.01026 4.0539 7.75334 4.36055 7.73681 4.87443C7.85289 5.38832 8.16787 5.637 8.68175 5.62047C10.2731 5.48798 11.6325 5.96882 12.7598 7.06298C13.8539 8.1903 14.3348 9.54964 14.2023 11.141C14.2023 11.6715 14.451 11.9865 14.9483 12.086C15.2301 12.1026 15.4622 12.0197 15.6445 11.8374C15.7771 11.7048 15.8517 11.5307 15.8683 11.3152C15.9842 10.304 15.8681 9.32598 15.5199 8.38107C15.2049 7.43616 14.6827 6.59899 13.9532 5.86955C12.4446 4.42724 10.6294 3.78888 8.50756 3.95448ZM8.18404 0.597635C7.68674 0.697055 7.43811 0.995419 7.43815 1.49273C7.53765 2.02319 7.84435 2.28016 8.35823 2.26362C9.63464 2.14769 10.8613 2.29698 12.0383 2.7115C13.2153 3.12602 14.2514 3.78089 15.1467 4.67611C16.0419 5.57133 16.705 6.61573 17.1361 7.8093C17.5506 8.98629 17.6999 10.213 17.584 11.4894C17.5675 12.0033 17.8244 12.31 18.3549 12.4095C18.6036 12.4261 18.819 12.3432 19.0014 12.1609C19.134 12.0283 19.2169 11.8625 19.25 11.6636C19.4156 10.1385 19.2415 8.67147 18.7275 7.26239C18.23 5.83674 17.4343 4.57683 16.3401 3.48267C15.2459 2.38851 13.9943 1.60101 12.5852 1.12016C11.1927 0.622743 9.72567 0.448568 8.18404 0.597635ZM5.37506 10.4689C5.65684 10.1871 5.7397 9.85562 5.62363 9.47434L4.35526 6.51527C4.12315 6.1174 3.79989 5.9599 3.38547 6.04275L0.675207 6.66416C0.260795 6.78016 0.0370298 7.05366 0.00391096 7.48466C0.0206746 9.78885 0.584458 11.8776 1.69526 13.7509C2.80606 15.591 4.28152 17.0664 6.12164 18.1772C7.99492 19.288 10.0836 19.8518 12.3878 19.8686C12.8188 19.8355 13.0923 19.6117 13.2083 19.1973L13.8297 16.487C13.896 16.056 13.7385 15.7328 13.3572 15.5172L10.423 14.2737C10.0417 14.1245 9.71021 14.2074 9.42843 14.5223L8.23501 15.9644C6.31202 15.0028 4.86971 13.5605 3.9081 11.6375L5.37506 10.4689Z" fill="#F41E1E"/>
</svg>
